# Blender v3.1.2 OBJ File: 'player.blend'
# www.blender.org
mtllib player.mtl
o 立方体
v 0.000000 1.000000 0.000000
v 0.000000 -1.000000 0.000000
v 0.000000 -1.000000 0.227625
v 0.000000 1.000000 0.227625
v 0.000000 0.000000 0.227625
v 0.000000 -0.503565 0.227625
v 0.000000 -0.751782 0.227625
v 0.000000 -0.251782 0.227625
v 0.000000 -1.000000 -0.227625
v 0.000000 1.000000 -0.227625
v 0.000000 0.000000 -0.227625
v 0.000000 -0.503565 -0.227625
v 0.000000 -0.751782 -0.227625
v 0.000000 -0.251782 -0.227625
v 0.753058 -1.000000 0.000000
v 0.117887 1.000000 0.000000
v 0.753058 -1.000000 0.227625
v 0.117887 1.000000 0.227625
v 0.557063 0.000000 0.000000
v 0.557063 0.000000 0.227625
v 0.754086 -0.503565 0.000000
v 0.751460 -0.503565 0.227625
v 0.586357 -1.000000 0.000000
v 0.058347 1.000000 0.000000
v 0.058347 1.000000 0.227625
v 0.591355 -1.000000 0.227625
v 0.483773 0.000000 0.227625
v 0.588119 -0.503565 0.227625
v 0.757107 -0.751782 0.000000
v 0.757107 -0.751782 0.227625
v 0.596678 -0.751782 0.227625
v 0.656772 -0.251782 0.227625
v 0.656772 -0.251782 0.000000
v 0.570902 -0.251782 0.227625
v 0.753058 -1.000000 -0.227625
v 0.117887 1.000000 -0.227625
v 0.557063 0.000000 -0.227625
v 0.751460 -0.503565 -0.227625
v 0.058347 1.000000 -0.227625
v 0.635665 -1.000000 -0.227625
v 0.483773 0.000000 -0.227625
v 0.633927 -0.503565 -0.227625
v 0.757107 -0.751782 -0.227625
v 0.637777 -0.751782 -0.227625
v 0.656772 -0.251782 -0.227625
v 0.570902 -0.251782 -0.227625
v -0.753058 -1.000000 0.000000
v -0.117887 1.000000 0.000000
v -0.753058 -1.000000 0.227625
v -0.117887 1.000000 0.227625
v -0.557063 0.000000 0.000000
v -0.557063 0.000000 0.227625
v -0.754086 -0.503565 0.000000
v -0.751460 -0.503565 0.227625
v -0.586357 -1.000000 0.000000
v -0.058347 1.000000 0.000000
v -0.058347 1.000000 0.227625
v -0.591355 -1.000000 0.227625
v -0.483773 0.000000 0.227625
v -0.588119 -0.503565 0.227625
v -0.757107 -0.751782 0.000000
v -0.757107 -0.751782 0.227625
v -0.596678 -0.751782 0.227625
v -0.656772 -0.251782 0.227625
v -0.656772 -0.251782 0.000000
v -0.570902 -0.251782 0.227625
v -0.753058 -1.000000 -0.227625
v -0.117887 1.000000 -0.227625
v -0.557063 0.000000 -0.227625
v -0.751460 -0.503565 -0.227625
v -0.058347 1.000000 -0.227625
v -0.635665 -1.000000 -0.227625
v -0.483773 0.000000 -0.227625
v -0.633927 -0.503565 -0.227625
v -0.757107 -0.751782 -0.227625
v -0.637777 -0.751782 -0.227625
v -0.656772 -0.251782 -0.227625
v -0.570902 -0.251782 -0.227625
vt 0.699452 0.253876
vt 0.616943 0.507752
vt 0.601827 0.507752
vt 0.181080 0.507752
vt 0.196195 0.565541
vt 0.181080 0.565541
vt 0.057789 0.550073
vt 0.115577 0.698936
vt 0.057789 0.698936
vt 0.826634 0.258580
vt 0.768845 0.528606
vt 0.768845 0.258580
vt 0.826634 0.190625
vt 0.768845 0.190625
vt 0.721572 0.189955
vt 0.718059 0.253876
vt 0.728116 0.063017
vt 0.767412 0.126033
vt 0.725943 0.126033
vt 0.768845 0.061203
vt 0.826634 0.122806
vt 0.768845 0.122954
vt 0.576634 0.063017
vt 0.576634 0.126033
vt 0.576634 0.189955
vt 0.576634 0.253876
vt 0.155886 0.507752
vt 0.155886 0.565541
vt 0.576634 0.507752
vt 0.726765 0.000000
vt 0.576634 0.000000
vt 0.826634 0.000000
vt 0.768845 0.000000
vt 0.767817 0.000000
vt 0.057789 0.507752
vt 0.115577 0.548805
vt 0.743373 0.189955
vt 0.069393 0.253876
vt 0.151902 0.507752
vt 0.050786 0.253876
vt 0.181080 0.623330
vt 0.000000 0.698936
vt 0.000000 0.537555
vt 0.884423 0.528606
vt 0.884423 0.258580
vt 0.884423 0.190625
vt 0.047273 0.189955
vt 0.025473 0.189955
vt 0.030295 0.063017
vt 0.001433 0.126033
vt 0.000000 0.063017
vt 0.884423 0.061203
vt 0.826634 0.061203
vt 0.192211 0.063017
vt 0.031272 0.126033
vt 0.192211 0.189955
vt 0.155886 0.623330
vt 0.192211 0.253876
vt 0.167018 0.507752
vt 0.030831 0.000000
vt 0.192211 0.000000
vt 0.884423 0.000000
vt 0.001028 0.000000
vt 0.000000 0.507752
vt 0.192211 0.126033
vt 0.884423 0.122954
vt 0.196195 0.507752
vt 0.826634 0.528606
vt 0.768845 0.063017
vt 0.115577 0.507752
vt 0.196195 0.623330
vt 0.192211 0.507752
vt 0.699452 0.253876
vt 0.601827 0.507752
vt 0.616943 0.507752
vt 0.181080 0.507752
vt 0.181080 0.565541
vt 0.196195 0.565541
vt 0.057789 0.550073
vt 0.826634 0.258580
vt 0.768845 0.258580
vt 0.768845 0.528606
vt 0.826634 0.190625
vt 0.768845 0.190625
vt 0.721572 0.189955
vt 0.718059 0.253876
vt 0.728116 0.063017
vt 0.725943 0.126033
vt 0.767412 0.126033
vt 0.768845 0.061203
vt 0.768845 0.122954
vt 0.826634 0.122806
vt 0.726765 0.000000
vt 0.826634 0.000000
vt 0.768845 0.000000
vt 0.767817 0.000000
vt 0.057789 0.507752
vt 0.115577 0.548805
vt 0.743373 0.189955
vt 0.069393 0.253876
vt 0.050786 0.253876
vt 0.151902 0.507752
vt 0.181080 0.623330
vt 0.000000 0.537555
vt 0.884423 0.528606
vt 0.884423 0.258580
vt 0.884423 0.190625
vt 0.047273 0.189955
vt 0.025473 0.189955
vt 0.030295 0.063017
vt 0.000000 0.063017
vt 0.001433 0.126033
vt 0.884423 0.061203
vt 0.826634 0.061203
vt 0.031272 0.126033
vt 0.167018 0.507752
vt 0.030831 0.000000
vt 0.884423 0.000000
vt 0.001028 0.000000
vt 0.000000 0.507752
vt 0.884423 0.122954
vt 0.196195 0.507752
vt 0.826634 0.528606
vt 0.768845 0.063017
vt 0.115577 0.507752
vt 0.196195 0.623330
vn 0.0000 0.0000 1.0000
vn 0.0000 1.0000 0.0000
vn 0.0000 -1.0000 0.0000
vn 0.9156 0.4021 0.0000
vn 0.9298 0.3682 0.0000
vn 0.9997 0.0227 0.0115
vn 0.9999 -0.0163 0.0000
vn 0.9360 0.3520 0.0000
vn 0.0000 0.0000 -1.0000
vn 0.9999 0.0122 0.0000
vn 0.9327 0.3605 -0.0108
vn 0.9327 0.3605 0.0108
vn 0.9997 0.0227 -0.0115
vn -0.9156 0.4021 0.0000
vn -0.9298 0.3682 0.0000
vn -0.9997 0.0227 0.0115
vn -0.9999 -0.0163 0.0000
vn -0.9360 0.3520 0.0000
vn -0.9999 0.0122 0.0000
vn -0.9327 0.3605 -0.0108
vn -0.9327 0.3605 0.0108
vn -0.9997 0.0227 -0.0115
usemtl マテリアル
s off
f 27/1/1 18/2/1 25/3/1
f 25/4/2 16/5/2 24/6/2
f 23/7/3 3/8/3 2/9/3
f 19/10/4 18/11/4 20/12/4
f 33/13/5 20/12/5 32/14/5
f 34/15/1 20/16/1 27/1/1
f 31/17/1 22/18/1 28/19/1
f 30/20/6 21/21/6 22/22/6
f 7/23/1 28/19/1 6/24/1
f 8/25/1 27/1/1 5/26/1
f 4/27/2 24/6/2 1/28/2
f 5/26/1 25/3/1 4/29/1
f 26/30/1 7/23/1 3/31/1
f 15/32/7 30/20/7 17/33/7
f 17/34/1 31/17/1 26/30/1
f 15/35/3 26/36/3 23/7/3
f 6/24/1 34/15/1 8/25/1
f 28/19/1 32/37/1 34/15/1
f 22/22/8 33/13/8 32/14/8
f 41/38/9 36/39/9 37/40/9
f 16/5/2 39/41/2 24/6/2
f 23/7/3 9/42/3 40/43/3
f 36/44/4 19/10/4 37/45/4
f 37/45/5 33/13/5 45/46/5
f 46/47/9 37/40/9 45/48/9
f 44/49/9 38/50/9 43/51/9
f 43/52/10 21/21/10 29/53/10
f 13/54/9 42/55/9 44/49/9
f 14/56/9 41/38/9 46/47/9
f 24/6/2 10/57/2 1/28/2
f 11/58/9 39/59/9 41/38/9
f 13/54/9 40/60/9 9/61/9
f 43/52/7 15/32/7 35/62/7
f 44/49/9 35/63/9 40/60/9
f 15/35/3 40/43/3 35/64/3
f 12/65/9 46/47/9 42/55/9
f 42/55/9 45/48/9 38/50/9
f 38/66/11 33/13/11 21/21/11
f 27/1/1 20/16/1 18/2/1
f 25/4/2 18/67/2 16/5/2
f 23/7/3 26/36/3 3/8/3
f 19/10/4 16/68/4 18/11/4
f 33/13/5 19/10/5 20/12/5
f 34/15/1 32/37/1 20/16/1
f 31/17/1 30/69/1 22/18/1
f 30/20/10 29/53/10 21/21/10
f 7/23/1 31/17/1 28/19/1
f 8/25/1 34/15/1 27/1/1
f 4/27/2 25/4/2 24/6/2
f 5/26/1 27/1/1 25/3/1
f 26/30/1 31/17/1 7/23/1
f 15/32/7 29/53/7 30/20/7
f 17/34/1 30/69/1 31/17/1
f 15/35/3 17/70/3 26/36/3
f 6/24/1 28/19/1 34/15/1
f 28/19/1 22/18/1 32/37/1
f 22/22/12 21/21/12 33/13/12
f 41/38/9 39/59/9 36/39/9
f 16/5/2 36/71/2 39/41/2
f 23/7/3 2/9/3 9/42/3
f 36/44/4 16/68/4 19/10/4
f 37/45/5 19/10/5 33/13/5
f 46/47/9 41/38/9 37/40/9
f 44/49/9 42/55/9 38/50/9
f 43/52/13 38/66/13 21/21/13
f 13/54/9 12/65/9 42/55/9
f 14/56/9 11/58/9 41/38/9
f 24/6/2 39/41/2 10/57/2
f 11/58/9 10/72/9 39/59/9
f 13/54/9 44/49/9 40/60/9
f 43/52/7 29/53/7 15/32/7
f 44/49/9 43/51/9 35/63/9
f 15/35/3 23/7/3 40/43/3
f 12/65/9 14/56/9 46/47/9
f 42/55/9 46/47/9 45/48/9
f 38/66/8 45/46/8 33/13/8
f 59/73/1 57/74/1 50/75/1
f 57/76/2 56/77/2 48/78/2
f 55/79/3 2/9/3 3/8/3
f 51/80/14 52/81/14 50/82/14
f 65/83/15 64/84/15 52/81/15
f 66/85/1 59/73/1 52/86/1
f 63/87/1 60/88/1 54/89/1
f 62/90/16 54/91/16 53/92/16
f 7/23/1 6/24/1 60/88/1
f 8/25/1 5/26/1 59/73/1
f 4/27/2 1/28/2 56/77/2
f 5/26/1 4/29/1 57/74/1
f 58/93/1 3/31/1 7/23/1
f 47/94/17 49/95/17 62/90/17
f 49/96/1 58/93/1 63/87/1
f 47/97/3 55/79/3 58/98/3
f 6/24/1 8/25/1 66/85/1
f 60/88/1 66/85/1 64/99/1
f 54/91/18 64/84/18 65/83/18
f 73/100/9 69/101/9 68/102/9
f 48/78/2 56/77/2 71/103/2
f 55/79/3 72/104/3 9/42/3
f 68/105/14 69/106/14 51/80/14
f 69/106/15 77/107/15 65/83/15
f 78/108/9 77/109/9 69/101/9
f 76/110/9 75/111/9 70/112/9
f 75/113/19 61/114/19 53/92/19
f 13/54/9 76/110/9 74/115/9
f 14/56/9 78/108/9 73/100/9
f 56/77/2 1/28/2 10/57/2
f 11/58/9 73/100/9 71/116/9
f 13/54/9 9/61/9 72/117/9
f 75/113/17 67/118/17 47/94/17
f 76/110/9 72/117/9 67/119/9
f 47/97/3 67/120/3 72/104/3
f 12/65/9 74/115/9 78/108/9
f 74/115/9 70/112/9 77/109/9
f 70/121/20 53/92/20 65/83/20
f 59/73/1 50/75/1 52/86/1
f 57/76/2 48/78/2 50/122/2
f 55/79/3 3/8/3 58/98/3
f 51/80/14 50/82/14 48/123/14
f 65/83/15 52/81/15 51/80/15
f 66/85/1 52/86/1 64/99/1
f 63/87/1 54/89/1 62/124/1
f 62/90/19 53/92/19 61/114/19
f 7/23/1 60/88/1 63/87/1
f 8/25/1 59/73/1 66/85/1
f 4/27/2 56/77/2 57/76/2
f 5/26/1 57/74/1 59/73/1
f 58/93/1 7/23/1 63/87/1
f 47/94/17 62/90/17 61/114/17
f 49/96/1 63/87/1 62/124/1
f 47/97/3 58/98/3 49/125/3
f 6/24/1 66/85/1 60/88/1
f 60/88/1 64/99/1 54/89/1
f 54/91/21 65/83/21 53/92/21
f 73/100/9 68/102/9 71/116/9
f 48/78/2 71/103/2 68/126/2
f 55/79/3 9/42/3 2/9/3
f 68/105/14 51/80/14 48/123/14
f 69/106/15 65/83/15 51/80/15
f 78/108/9 69/101/9 73/100/9
f 76/110/9 70/112/9 74/115/9
f 75/113/22 53/92/22 70/121/22
f 13/54/9 74/115/9 12/65/9
f 14/56/9 73/100/9 11/58/9
f 56/77/2 10/57/2 71/103/2
f 11/58/9 71/116/9 10/72/9
f 13/54/9 72/117/9 76/110/9
f 75/113/17 47/94/17 61/114/17
f 76/110/9 67/119/9 75/111/9
f 47/97/3 72/104/3 55/79/3
f 12/65/9 78/108/9 14/56/9
f 74/115/9 77/109/9 78/108/9
f 70/121/18 65/83/18 77/107/18
