# Blender v3.2.2 OBJ File: ''
# www.blender.org
mtllib A.mtl
o テキスト
v 0.233500 -0.343000 0.100000
v 0.142500 -0.142000 0.100000
v -0.147500 -0.142000 0.100000
v -0.233500 -0.343000 0.100000
v -0.333500 -0.343000 0.100000
v -0.040500 0.343000 0.100000
v 0.028500 0.343000 0.100000
v 0.333500 -0.343000 0.100000
v 0.102500 -0.054000 0.100000
v -0.007500 0.193000 0.100000
v -0.109500 -0.054000 0.100000
v 0.233500 -0.343000 -0.100000
v 0.142500 -0.142000 -0.100000
v -0.147500 -0.142000 -0.100000
v -0.233500 -0.343000 -0.100000
v -0.333500 -0.343000 -0.100000
v -0.040500 0.343000 -0.100000
v 0.028500 0.343000 -0.100000
v 0.333500 -0.343000 -0.100000
v 0.102500 -0.054000 -0.100000
v -0.007500 0.193000 -0.100000
v -0.109500 -0.054000 -0.100000
v 0.233500 -0.343000 -0.100000
v 0.233500 -0.343000 0.100000
v 0.142500 -0.142000 -0.100000
v 0.142500 -0.142000 0.100000
v -0.147500 -0.142000 -0.100000
v -0.147500 -0.142000 0.100000
v -0.233500 -0.343000 -0.100000
v -0.233500 -0.343000 0.100000
v -0.333500 -0.343000 -0.100000
v -0.333500 -0.343000 0.100000
v -0.040500 0.343000 -0.100000
v -0.040500 0.343000 0.100000
v 0.028500 0.343000 -0.100000
v 0.028500 0.343000 0.100000
v 0.333500 -0.343000 -0.100000
v 0.333500 -0.343000 0.100000
v 0.102500 -0.054000 -0.100000
v 0.102500 -0.054000 0.100000
v -0.007500 0.193000 -0.100000
v -0.007500 0.193000 0.100000
v -0.109500 -0.054000 -0.100000
v -0.109500 -0.054000 0.100000
vt 0.400000 0.000000
vt 0.600000 0.000000
vt 0.500000 0.000000
vt 0.900000 0.000000
vt 0.700000 0.000000
vt 1.000000 0.000000
vt 0.800000 0.000000
vt 0.200000 0.000000
vt 0.100000 0.000000
vt 0.300000 0.000000
vt 0.000000 0.000000
vt 0.400000 0.000000
vt 0.500000 0.000000
vt 0.600000 0.000000
vt 0.900000 0.000000
vt 0.700000 0.000000
vt 1.000000 0.000000
vt 0.800000 0.000000
vt 0.200000 0.000000
vt 0.100000 0.000000
vt 0.300000 0.000000
vt 0.000000 0.000000
vt 0.125000 1.000000
vt 0.000000 0.000000
vt 0.000000 1.000000
vt 0.250000 1.000000
vt 0.125000 0.000000
vt 0.375000 1.000000
vt 0.250000 0.000000
vt 0.500000 1.000000
vt 0.375000 0.000000
vt 0.625000 1.000000
vt 0.500000 0.000000
vt 0.750000 1.000000
vt 0.625000 0.000000
vt 0.875000 1.000000
vt 0.750000 0.000000
vt 1.000000 1.000000
vt 0.875000 0.000000
vt 0.333333 1.000000
vt 0.000000 0.000000
vt 0.000000 1.000000
vt 0.666667 1.000000
vt 0.333333 0.000000
vt 1.000000 1.000000
vt 0.666667 0.000000
vt 1.000000 0.000000
vt 1.000000 0.000000
vn 0.0000 -0.0000 1.0000
vn 0.0000 0.0000 -1.0000
vn -0.5420 -0.8404 0.0000
vn 0.5507 -0.8347 0.0000
vn -0.8345 -0.5510 0.0000
vn -0.5510 0.8345 0.0000
vn 0.5449 0.8385 0.0000
vn 0.8385 -0.5449 0.0000
vn 0.0137 -0.9999 0.0000
vn -0.8387 0.5446 0.0000
vn 0.8312 0.5560 0.0000
usemtl None
s off
f 5/1/1 7/2/1 6/3/1
f 5/1/1 10/4/1 7/2/1
f 10/4/1 8/5/1 7/2/1
f 5/1/1 11/6/1 10/4/1
f 9/7/1 8/5/1 10/4/1
f 5/1/1 3/8/1 11/6/1
f 3/8/1 9/7/1 11/6/1
f 3/8/1 2/9/1 9/7/1
f 2/9/1 8/5/1 9/7/1
f 5/1/1 4/10/1 3/8/1
f 1/11/1 8/5/1 2/9/1
f 16/12/2 17/13/2 18/14/2
f 16/12/2 18/14/2 21/15/2
f 21/15/2 18/14/2 19/16/2
f 16/12/2 21/15/2 22/17/2
f 20/18/2 21/15/2 19/16/2
f 16/12/2 22/17/2 14/19/2
f 14/19/2 22/17/2 20/18/2
f 14/19/2 20/18/2 13/20/2
f 13/20/2 20/18/2 19/16/2
f 16/12/2 14/19/2 15/21/2
f 12/22/2 13/20/2 19/16/2
s 1
f 26/23/3 23/24/3 24/25/3
f 28/26/4 25/27/3 26/23/3
f 30/28/4 27/29/4 28/26/4
f 32/30/5 29/31/4 30/28/4
f 34/32/6 31/33/5 32/30/5
f 36/34/7 33/35/6 34/32/6
f 38/36/8 35/37/7 36/34/7
f 24/38/3 37/39/8 38/36/8
f 42/40/9 39/41/10 40/42/10
f 44/43/11 41/44/9 42/40/9
f 40/45/10 43/46/11 44/43/11
f 26/23/3 25/27/3 23/24/3
f 28/26/4 27/29/4 25/27/3
f 30/28/4 29/31/4 27/29/4
f 32/30/5 31/33/5 29/31/4
f 34/32/6 33/35/6 31/33/5
f 36/34/7 35/37/7 33/35/6
f 38/36/8 37/39/8 35/37/7
f 24/38/3 23/47/3 37/39/8
f 42/40/9 41/44/9 39/41/10
f 44/43/11 43/46/11 41/44/9
f 40/45/10 39/48/10 43/46/11
